<?xml version="1.0" standalone="no"?><!DOCTYPE svg PUBLIC "-//W3C//DTD SVG 1.1//EN" "http://www.w3.org/Graphics/SVG/1.1/DTD/svg11.dtd"><svg class="icon" height="512" viewBox="0 0 1024 1024" version="1.1" xmlns="http://www.w3.org/2000/svg"><path d="M509.454014 226.7667c40.017412 0 72.451102-32.287357 72.451102-72.114434 0-39.814798-32.43369-72.102155-72.451102-72.102155-40.015366 0-72.447009 32.287357-72.447009 72.102155C437.007005 194.480366 469.438649 226.7667 509.454014 226.7667zM785.127587 601.258906l-46.073338 0 0 225.304396 46.073338 0c17.146519 0 33.765011-12.501732 33.765011-34.375925 0 0 0-156.379607 0-156.775626C818.892599 615.960747 802.645566 601.258906 785.127587 601.258906zM697.945993 575.057151c0-10.150174-7.864108-16.766872-18.132986-18.488073 0-0.184195 0.100284-0.332575 0.100284-0.528026L679.913291 334.594521c0-75.702146-22.716374-93.625354-92.546789-93.625354L416.761915 240.969167 265.00663 87.722924c-33.401738-33.240055-82.084507 15.205307-48.691979 48.425919l200.985524 217.371726 0 554.387389c0 57.553811 79.317487 55.862285 79.317487 0l5.022387-321.779657 15.70775 0 4.992711 321.779657c0 55.862285 79.335906 57.553811 79.335906 0l0-80.96194L726.367299 826.946019 726.367299 601.626273l-28.421306 0L697.945993 575.057151zM603.445712 575.057151l0 26.570145-1.787716 0L601.657996 353.521592l14.947434 0 5.042853 202.498994c0 0.198521 0.098237 0.341784 0.098237 0.518816C611.457176 558.289256 603.445712 564.906977 603.445712 575.057151zM680.771845 601.626273l-60.639079 0 0-27.569916 6.584975 0c10.933003 18.3356 37.219693 18.3356 48.125067 0l5.929036 0L680.771845 601.626273z" /></svg>